<svg xmlns="http://www.w3.org/2000/svg" viewBox="0 0 200 200">
  <!-- 风扇底座 -->
  <rect x="85" y="150" width="30" height="50" rx="5" fill="#333" />
  <circle cx="100" cy="140" r="20" fill="#333" />
  
  <!-- 风扇外框 -->
  <circle cx="100" cy="100" r="40" stroke="#555" stroke-width="5" fill="none" />
  
  <!-- 风扇中心 -->
  <circle cx="100" cy="100" r="10" fill="#666" />
  
  <!-- 风扇叶片 -->
  <g id="blades">
    <!-- 叶片1 -->
    <path d="M100 60 Q120 70 115 100 Q120 130 100 140 Q80 130 85 100 Q80 70 100 60" fill="#888" />
    
    <!-- 叶片2 -->
    <path d="M140 100 Q130 120 100 125 Q70 120 60 100 Q70 80 100 75 Q130 80 140 100" fill="#888" />
    
    <!-- 叶片3 -->
    <path d="M100 140 Q80 130 85 100 Q80 70 100 60 Q120 70 115 100 Q120 130 100 140" fill="#888" transform="rotate(120 100 100)" />
    
    <!-- 叶片4 -->
    <path d="M140 100 Q130 120 100 125 Q70 120 60 100 Q70 80 100 75 Q130 80 140 100" fill="#888" transform="rotate(120 100 100)" />
  </g>
</svg>